<svg width="32" height="32" viewBox="0 0 32 32" fill="none" xmlns="http://www.w3.org/2000/svg">
<rect width="32" height="32" rx="16" fill="white"/>
<path d="M16.1147 21.7942C14.4494 21.3624 12.3296 20.0902 10.4877 17.8587C13.4997 20.1335 15.2211 21.2649 19.0614 21.5284C17.241 21.1393 14.9238 20.1148 13.849 17.5008C12.9108 15.2174 12.4862 13.3367 12.0409 11.8962C11.9004 12.5461 11.5227 13.1742 10.7149 13.6502C10.7149 13.6502 11.0758 13.3367 11.3468 12.6245C11.7238 11.6338 11.5472 10.5175 10.8839 9.69165C10.2197 8.86539 9.16787 8.45203 8.11985 8.6088C8.11916 8.60917 8.11755 8.60917 8.11599 8.60958C4.52752 9.1496 2.91062 15.8704 8.17141 20.9102C11.3983 23.9015 15.4852 23.7241 18.2983 23.033C21.6273 23.406 24.9318 22.2275 27.1998 19.1282C26.4136 19.7967 22.524 23.456 16.1147 21.7942Z" fill="black"/>
</svg>
